# xmcd CD database file
#
# Track frame offsets:
#	150
#	22142
#	40577
#	52862
#	70267
#	89667
#	110075
#	126367
#	140590
#	158085
#	174122
#	189957
#
# Disc length: 2713 seconds
#
# Revision: 0
# Processed by: cddbd v1.5.1PL0 Copyright (c) Steve Scherf et al.
# Submitted via: CDex 1.51
#
DISCID=a00a970c
DTITLE=Rafael Mendez - Presenting Rafael Mendez
DYEAR=1900
DGENRE=Jazz
TTITLE0=Danse Polovtsienne
TTITLE1=Musetta
TTITLE2=Paper Doll
TTITLE3=Hungarian Dance No. 5
TTITLE4=Habanera
TTITLE5=Scherzo In D Minor
TTITLE6=Jota No. 2
TTITLE7=Bewitched
TTITLE8=Hungarian Chant
TTITLE9=Laura
TTITLE10=Dance Of The Comedians
TTITLE11=Over The Rainbow
EXTD=
EXTT0=
EXTT1=
EXTT2=
EXTT3=
EXTT4=
EXTT5=
EXTT6=
EXTT7=
EXTT8=
EXTT9=
EXTT10=
EXTT11=
PLAYORDER=
